<?xml version="1.0" encoding="UTF-8" standalone="no"?>
<!DOCTYPE svg PUBLIC "-//W3C//DTD SVG 1.1//EN"
 "http://www.w3.org/Graphics/SVG/1.1/DTD/svg11.dtd">
<!-- Generated by graphviz version 2.38.0 (20140413.2041)
 -->
<!-- Title: %3 Pages: 1 -->
<svg width="425pt" height="740pt"
 viewBox="0.00 0.00 425.00 740.00" xmlns="http://www.w3.org/2000/svg" xmlns:xlink="http://www.w3.org/1999/xlink">
<g id="graph0" class="graph" transform="scale(1 1) rotate(0) translate(4 736)">
<title>%3</title>
<polygon fill="white" stroke="none" points="-4,4 -4,-736 421,-736 421,4 -4,4"/>
<!-- 139762718696840 -->
<g id="node1" class="node"><title>139762718696840</title>
<polygon fill="#caff70" stroke="black" points="312,-21 187,-21 187,-0 312,-0 312,-21"/>
<text text-anchor="middle" x="249.5" y="-7.4" font-family="Times,serif" font-size="12.00">LogSoftmaxBackward</text>
</g>
<!-- 139762718698688 -->
<g id="node2" class="node"><title>139762718698688</title>
<polygon fill="lightgrey" stroke="black" points="301.5,-78 197.5,-78 197.5,-57 301.5,-57 301.5,-78"/>
<text text-anchor="middle" x="249.5" y="-64.4" font-family="Times,serif" font-size="12.00">AddmmBackward</text>
</g>
<!-- 139762718698688&#45;&gt;139762718696840 -->
<g id="edge1" class="edge"><title>139762718698688&#45;&gt;139762718696840</title>
<path fill="none" stroke="black" d="M249.5,-56.9197C249.5,-49.9083 249.5,-40.1442 249.5,-31.4652"/>
<polygon fill="black" stroke="black" points="253,-31.3408 249.5,-21.3408 246,-31.3409 253,-31.3408"/>
</g>
<!-- 139762718697568 -->
<g id="node3" class="node"><title>139762718697568</title>
<polygon fill="lightblue" stroke="black" points="184.5,-149 130.5,-149 130.5,-114 184.5,-114 184.5,-149"/>
<text text-anchor="middle" x="157.5" y="-121.4" font-family="Times,serif" font-size="12.00"> (10)</text>
</g>
<!-- 139762718697568&#45;&gt;139762718698688 -->
<g id="edge2" class="edge"><title>139762718697568&#45;&gt;139762718698688</title>
<path fill="none" stroke="black" d="M182.154,-113.885C196.126,-104.469 213.474,-92.7787 227.063,-83.6207"/>
<polygon fill="black" stroke="black" points="229.04,-86.5088 235.377,-78.0178 225.128,-80.7039 229.04,-86.5088"/>
</g>
<!-- 139762718698352 -->
<g id="node4" class="node"><title>139762718698352</title>
<polygon fill="lightgrey" stroke="black" points="296.5,-142 202.5,-142 202.5,-121 296.5,-121 296.5,-142"/>
<text text-anchor="middle" x="249.5" y="-128.4" font-family="Times,serif" font-size="12.00">ReluBackward0</text>
</g>
<!-- 139762718698352&#45;&gt;139762718698688 -->
<g id="edge3" class="edge"><title>139762718698352&#45;&gt;139762718698688</title>
<path fill="none" stroke="black" d="M249.5,-120.812C249.5,-112.218 249.5,-99.3883 249.5,-88.5855"/>
<polygon fill="black" stroke="black" points="253,-88.3241 249.5,-78.3241 246,-88.3241 253,-88.3241"/>
</g>
<!-- 139762718697176 -->
<g id="node5" class="node"><title>139762718697176</title>
<polygon fill="lightgrey" stroke="black" points="301.5,-213 197.5,-213 197.5,-192 301.5,-192 301.5,-213"/>
<text text-anchor="middle" x="249.5" y="-199.4" font-family="Times,serif" font-size="12.00">AddmmBackward</text>
</g>
<!-- 139762718697176&#45;&gt;139762718698352 -->
<g id="edge4" class="edge"><title>139762718697176&#45;&gt;139762718698352</title>
<path fill="none" stroke="black" d="M249.5,-191.906C249.5,-181.71 249.5,-165.3 249.5,-152.308"/>
<polygon fill="black" stroke="black" points="253,-152.013 249.5,-142.013 246,-152.013 253,-152.013"/>
</g>
<!-- 139762718696896 -->
<g id="node6" class="node"><title>139762718696896</title>
<polygon fill="lightblue" stroke="black" points="185.5,-291 131.5,-291 131.5,-256 185.5,-256 185.5,-291"/>
<text text-anchor="middle" x="158.5" y="-263.4" font-family="Times,serif" font-size="12.00"> (500)</text>
</g>
<!-- 139762718696896&#45;&gt;139762718697176 -->
<g id="edge5" class="edge"><title>139762718696896&#45;&gt;139762718697176</title>
<path fill="none" stroke="black" d="M180.529,-255.797C195.165,-244.699 214.263,-230.218 228.651,-219.309"/>
<polygon fill="black" stroke="black" points="231.065,-221.871 236.919,-213.04 226.835,-216.293 231.065,-221.871"/>
</g>
<!-- 139762718697680 -->
<g id="node7" class="node"><title>139762718697680</title>
<polygon fill="lightgrey" stroke="black" points="295.5,-284 203.5,-284 203.5,-263 295.5,-263 295.5,-284"/>
<text text-anchor="middle" x="249.5" y="-270.4" font-family="Times,serif" font-size="12.00">ViewBackward</text>
</g>
<!-- 139762718697680&#45;&gt;139762718697176 -->
<g id="edge6" class="edge"><title>139762718697680&#45;&gt;139762718697176</title>
<path fill="none" stroke="black" d="M249.5,-262.906C249.5,-252.71 249.5,-236.3 249.5,-223.308"/>
<polygon fill="black" stroke="black" points="253,-223.013 249.5,-213.013 246,-223.013 253,-223.013"/>
</g>
<!-- 139762718699304 -->
<g id="node8" class="node"><title>139762718699304</title>
<polygon fill="lightgrey" stroke="black" points="330,-355 149,-355 149,-334 330,-334 330,-355"/>
<text text-anchor="middle" x="239.5" y="-341.4" font-family="Times,serif" font-size="12.00">MaxPool2DWithIndicesBackward</text>
</g>
<!-- 139762718699304&#45;&gt;139762718697680 -->
<g id="edge7" class="edge"><title>139762718699304&#45;&gt;139762718697680</title>
<path fill="none" stroke="black" d="M240.89,-333.906C242.383,-323.607 244.795,-306.968 246.686,-293.915"/>
<polygon fill="black" stroke="black" points="250.151,-294.411 248.121,-284.013 243.223,-293.407 250.151,-294.411"/>
</g>
<!-- 139762718697848 -->
<g id="node9" class="node"><title>139762718697848</title>
<polygon fill="lightgrey" stroke="black" points="286.5,-419 192.5,-419 192.5,-398 286.5,-398 286.5,-419"/>
<text text-anchor="middle" x="239.5" y="-405.4" font-family="Times,serif" font-size="12.00">ReluBackward0</text>
</g>
<!-- 139762718697848&#45;&gt;139762718699304 -->
<g id="edge8" class="edge"><title>139762718697848&#45;&gt;139762718699304</title>
<path fill="none" stroke="black" d="M239.5,-397.812C239.5,-389.218 239.5,-376.388 239.5,-365.585"/>
<polygon fill="black" stroke="black" points="243,-365.324 239.5,-355.324 236,-365.324 243,-365.324"/>
</g>
<!-- 139762718698856 -->
<g id="node10" class="node"><title>139762718698856</title>
<polygon fill="lightgrey" stroke="black" points="320.5,-476 158.5,-476 158.5,-455 320.5,-455 320.5,-476"/>
<text text-anchor="middle" x="239.5" y="-462.4" font-family="Times,serif" font-size="12.00">MkldnnConvolutionBackward</text>
</g>
<!-- 139762718698856&#45;&gt;139762718697848 -->
<g id="edge9" class="edge"><title>139762718698856&#45;&gt;139762718697848</title>
<path fill="none" stroke="black" d="M239.5,-454.92C239.5,-447.908 239.5,-438.144 239.5,-429.465"/>
<polygon fill="black" stroke="black" points="243,-429.341 239.5,-419.341 236,-429.341 243,-429.341"/>
</g>
<!-- 139762718698240 -->
<g id="node11" class="node"><title>139762718698240</title>
<polygon fill="lightgrey" stroke="black" points="181,-540 0,-540 0,-519 181,-519 181,-540"/>
<text text-anchor="middle" x="90.5" y="-526.4" font-family="Times,serif" font-size="12.00">MaxPool2DWithIndicesBackward</text>
</g>
<!-- 139762718698240&#45;&gt;139762718698856 -->
<g id="edge10" class="edge"><title>139762718698240&#45;&gt;139762718698856</title>
<path fill="none" stroke="black" d="M113.455,-518.948C138.428,-508.557 178.559,-491.858 206.818,-480.099"/>
<polygon fill="black" stroke="black" points="208.386,-483.238 216.274,-476.165 205.696,-476.775 208.386,-483.238"/>
</g>
<!-- 139762718696392 -->
<g id="node12" class="node"><title>139762718696392</title>
<polygon fill="lightgrey" stroke="black" points="137.5,-604 43.5,-604 43.5,-583 137.5,-583 137.5,-604"/>
<text text-anchor="middle" x="90.5" y="-590.4" font-family="Times,serif" font-size="12.00">ReluBackward0</text>
</g>
<!-- 139762718696392&#45;&gt;139762718698240 -->
<g id="edge11" class="edge"><title>139762718696392&#45;&gt;139762718698240</title>
<path fill="none" stroke="black" d="M90.5,-582.812C90.5,-574.218 90.5,-561.388 90.5,-550.585"/>
<polygon fill="black" stroke="black" points="94.0001,-550.324 90.5,-540.324 87.0001,-550.324 94.0001,-550.324"/>
</g>
<!-- 139762801821064 -->
<g id="node13" class="node"><title>139762801821064</title>
<polygon fill="lightgrey" stroke="black" points="171.5,-661 9.5,-661 9.5,-640 171.5,-640 171.5,-661"/>
<text text-anchor="middle" x="90.5" y="-647.4" font-family="Times,serif" font-size="12.00">MkldnnConvolutionBackward</text>
</g>
<!-- 139762801821064&#45;&gt;139762718696392 -->
<g id="edge12" class="edge"><title>139762801821064&#45;&gt;139762718696392</title>
<path fill="none" stroke="black" d="M90.5,-639.92C90.5,-632.908 90.5,-623.144 90.5,-614.465"/>
<polygon fill="black" stroke="black" points="94.0001,-614.341 90.5,-604.341 87.0001,-614.341 94.0001,-614.341"/>
</g>
<!-- 139762801613848 -->
<g id="node14" class="node"><title>139762801613848</title>
<polygon fill="lightblue" stroke="black" points="87,-732 12,-732 12,-697 87,-697 87,-732"/>
<text text-anchor="middle" x="49.5" y="-704.4" font-family="Times,serif" font-size="12.00"> (20, 1, 5, 5)</text>
</g>
<!-- 139762801613848&#45;&gt;139762801821064 -->
<g id="edge13" class="edge"><title>139762801613848&#45;&gt;139762801821064</title>
<path fill="none" stroke="black" d="M60.4872,-696.885C66.0615,-688.456 72.8414,-678.203 78.546,-669.577"/>
<polygon fill="black" stroke="black" points="81.6094,-671.29 84.206,-661.018 75.7706,-667.428 81.6094,-671.29"/>
</g>
<!-- 139762801612392 -->
<g id="node15" class="node"><title>139762801612392</title>
<polygon fill="lightblue" stroke="black" points="159.5,-732 105.5,-732 105.5,-697 159.5,-697 159.5,-732"/>
<text text-anchor="middle" x="132.5" y="-704.4" font-family="Times,serif" font-size="12.00"> (20)</text>
</g>
<!-- 139762801612392&#45;&gt;139762801821064 -->
<g id="edge14" class="edge"><title>139762801612392&#45;&gt;139762801821064</title>
<path fill="none" stroke="black" d="M121.245,-696.885C115.474,-688.366 108.441,-677.985 102.559,-669.302"/>
<polygon fill="black" stroke="black" points="105.454,-667.334 96.9475,-661.018 99.6583,-671.26 105.454,-667.334"/>
</g>
<!-- 139762718696056 -->
<g id="node16" class="node"><title>139762718696056</title>
<polygon fill="lightblue" stroke="black" points="280,-547 199,-547 199,-512 280,-512 280,-547"/>
<text text-anchor="middle" x="239.5" y="-519.4" font-family="Times,serif" font-size="12.00"> (50, 20, 5, 5)</text>
</g>
<!-- 139762718696056&#45;&gt;139762718698856 -->
<g id="edge15" class="edge"><title>139762718696056&#45;&gt;139762718698856</title>
<path fill="none" stroke="black" d="M239.5,-511.885C239.5,-503.994 239.5,-494.505 239.5,-486.248"/>
<polygon fill="black" stroke="black" points="243,-486.018 239.5,-476.018 236,-486.018 243,-486.018"/>
</g>
<!-- 139762718695832 -->
<g id="node17" class="node"><title>139762718695832</title>
<polygon fill="lightblue" stroke="black" points="352.5,-547 298.5,-547 298.5,-512 352.5,-512 352.5,-547"/>
<text text-anchor="middle" x="325.5" y="-519.4" font-family="Times,serif" font-size="12.00"> (50)</text>
</g>
<!-- 139762718695832&#45;&gt;139762718698856 -->
<g id="edge16" class="edge"><title>139762718695832&#45;&gt;139762718698856</title>
<path fill="none" stroke="black" d="M302.454,-511.885C289.517,-502.559 273.486,-491.001 260.838,-481.883"/>
<polygon fill="black" stroke="black" points="262.861,-479.027 252.702,-476.018 258.767,-484.705 262.861,-479.027"/>
</g>
<!-- 139762718695944 -->
<g id="node18" class="node"><title>139762718695944</title>
<polygon fill="lightgrey" stroke="black" points="408,-284 335,-284 335,-263 408,-263 408,-284"/>
<text text-anchor="middle" x="371.5" y="-270.4" font-family="Times,serif" font-size="12.00">TBackward</text>
</g>
<!-- 139762718695944&#45;&gt;139762718697176 -->
<g id="edge17" class="edge"><title>139762718695944&#45;&gt;139762718697176</title>
<path fill="none" stroke="black" d="M354.536,-262.906C333.959,-251.268 299.068,-231.534 275.188,-218.028"/>
<polygon fill="black" stroke="black" points="276.747,-214.889 266.32,-213.013 273.301,-220.982 276.747,-214.889"/>
</g>
<!-- 139762718698744 -->
<g id="node19" class="node"><title>139762718698744</title>
<polygon fill="lightblue" stroke="black" points="417,-362 348,-362 348,-327 417,-327 417,-362"/>
<text text-anchor="middle" x="382.5" y="-334.4" font-family="Times,serif" font-size="12.00"> (500, 800)</text>
</g>
<!-- 139762718698744&#45;&gt;139762718695944 -->
<g id="edge18" class="edge"><title>139762718698744&#45;&gt;139762718695944</title>
<path fill="none" stroke="black" d="M379.837,-326.797C378.268,-316.956 376.275,-304.453 374.631,-294.141"/>
<polygon fill="black" stroke="black" points="378.052,-293.364 373.021,-284.04 371.139,-294.466 378.052,-293.364"/>
</g>
<!-- 139762718698576 -->
<g id="node20" class="node"><title>139762718698576</title>
<polygon fill="lightgrey" stroke="black" points="388,-142 315,-142 315,-121 388,-121 388,-142"/>
<text text-anchor="middle" x="351.5" y="-128.4" font-family="Times,serif" font-size="12.00">TBackward</text>
</g>
<!-- 139762718698576&#45;&gt;139762718698688 -->
<g id="edge19" class="edge"><title>139762718698576&#45;&gt;139762718698688</title>
<path fill="none" stroke="black" d="M335.562,-120.812C319.095,-110.803 293.174,-95.0471 274.08,-83.4405"/>
<polygon fill="black" stroke="black" points="275.689,-80.3228 265.326,-78.1195 272.053,-86.3045 275.689,-80.3228"/>
</g>
<!-- 139762801821176 -->
<g id="node21" class="node"><title>139762801821176</title>
<polygon fill="lightblue" stroke="black" points="383,-220 320,-220 320,-185 383,-185 383,-220"/>
<text text-anchor="middle" x="351.5" y="-192.4" font-family="Times,serif" font-size="12.00"> (10, 500)</text>
</g>
<!-- 139762801821176&#45;&gt;139762718698576 -->
<g id="edge20" class="edge"><title>139762801821176&#45;&gt;139762718698576</title>
<path fill="none" stroke="black" d="M351.5,-184.797C351.5,-174.956 351.5,-162.453 351.5,-152.141"/>
<polygon fill="black" stroke="black" points="355,-152.04 351.5,-142.04 348,-152.04 355,-152.04"/>
</g>
</g>
</svg>
